# xmcd CD database file
#
# Track frame offsets:
#	150
#	26061
#	57959
#	109804
#	129508
#	154792
#
# Disc length: 2690 seconds
#
# Revision: 1
# Processed by: cddbd v1.5.2PL0 Copyright (c) Steve Scherf et al.
# Submitted via: CDex 1.51
#
DISCID=4a0a8006
DTITLE=Dizzie Gillespie - At Newport - Kind Of Gillespie
DYEAR=1957
DGENRE=Jazz
TTITLE0=Doodlin'  (Silver)  
TTITLE1=Manteca  (Fuller/Gillespie)
TTITLE2=Dizzy's Blues  (Salim)
TTITLE3=I Remember Clifford  (Golson)
TTITLE4=School Days  (Edwards/Cobb)
TTITLE5=Cool Breeze (Dameron/Eckstine/Gillespie)
EXTD=YEAR: 1957
EXTT0=
EXTT1=
EXTT2=
EXTT3=
EXTT4=
EXTT5=
PLAYORDER=
